<svg height="512" viewBox="0 0 128 128" width="512" xmlns="http://www.w3.org/2000/svg"><g><circle cx="64" cy="64" fill="#ffca28" r="57.694"/><circle cx="64" cy="64" fill="#eaeaea" r="47.962"/><path d="m82.973 45.027-22.39 15.556-15.556 22.39 22.39-15.556z" fill="#ff6e6e"/><circle cx="64" cy="64" fill="#65727f" r="4.749"/><g><path d="m11.431 83.179a1.75 1.75 0 0 0 -3.289 1.2c.515 1.415 1.093 2.827 1.716 4.2a1.75 1.75 0 0 0 3.186-1.449c-.586-1.294-1.129-2.621-1.613-3.951z"/><path d="m116.724 36.521a1.75 1.75 0 1 0 -3.1 1.62 55.953 55.953 0 0 1 -96.133 56.959 1.75 1.75 0 1 0 -2.908 1.948 59.454 59.454 0 0 0 102.141-60.527z"/><path d="m9.118 74.906a55.954 55.954 0 0 1 100.65-43.086 1.75 1.75 0 0 0 2.861-2.015 59.464 59.464 0 0 0 -106.944 45.779 1.749 1.749 0 0 0 1.715 1.416 1.8 1.8 0 0 0 .341-.034 1.75 1.75 0 0 0 1.377-2.06z"/><path d="m99.151 28.848a1.735 1.735 0 0 0 -.232-.19 49.611 49.611 0 0 0 -69.838 0 1.735 1.735 0 0 0 -.232.19 1.685 1.685 0 0 0 -.191.234 49.609 49.609 0 0 0 0 69.836 1.685 1.685 0 0 0 .191.234 1.744 1.744 0 0 0 .233.19 49.609 49.609 0 0 0 69.836 0 1.744 1.744 0 0 0 .233-.19 1.685 1.685 0 0 0 .191-.234 49.609 49.609 0 0 0 0-69.836 1.685 1.685 0 0 0 -.191-.234zm-1.282 66.552-3.3-3.3a1.75 1.75 0 0 0 -2.469 2.472l3.3 3.3a46.1 46.1 0 0 1 -62.79 0l3.3-3.3a1.75 1.75 0 1 0 -2.481-2.472l-3.3 3.3a46.1 46.1 0 0 1 0-62.79l3.3 3.3a1.75 1.75 0 0 0 2.471-2.482l-3.3-3.3a46.1 46.1 0 0 1 62.79 0l-3.3 3.3a1.75 1.75 0 1 0 2.481 2.472l3.3-3.3a46.1 46.1 0 0 1 0 62.79z"/><path d="m97.308 69.535h8.718v-2.465h-5.963v-1.95h5.414v-2.465h-5.414v-1.725h5.963v-2.465h-8.718z"/><path d="m34.745 65.378-2.289-6.913h-2.965l-2.303 6.913-1.693-6.913h-2.98l3.223 11.07h2.771l2.465-7.009 2.466 7.009h2.771l3.206-11.07h-2.98z"/><path d="m61.591 27.043 4.819 6.542h2.755v-11.07h-2.755v6.542l-4.819-6.542h-2.756v11.07h2.756z"/><path d="m64.685 98.556c-1.643-.354-2.176-.58-2.176-1.256 0-.548.5-.967 1.387-.967a5.307 5.307 0 0 1 3.158 1.176l1.4-1.966a6.692 6.692 0 0 0 -4.48-1.514c-2.529 0-4.238 1.418-4.238 3.544 0 2.224 1.757 2.869 4.125 3.4 1.611.387 2.127.532 2.127 1.193 0 .6-.532 1.015-1.563 1.015a5.657 5.657 0 0 1 -3.641-1.4l-1.547 1.853a7.493 7.493 0 0 0 5.092 1.853c2.739 0 4.43-1.386 4.43-3.609.002-2.078-1.592-2.79-4.074-3.322z"/><path d="m81.975 43.59-22.39 15.556a1.74 1.74 0 0 0 -.439.438l-15.556 22.39a1.75 1.75 0 0 0 2.435 2.436l22.39-15.556a1.74 1.74 0 0 0 .439-.438l15.556-22.39a1.75 1.75 0 0 0 -2.435-2.436zm-17.975 23.41a3 3 0 1 1 3-3 3 3 0 0 1 -3 3zm-5.753.014a6.535 6.535 0 0 0 2.74 2.74l-8.978 6.238zm11.506-6.026a6.535 6.535 0 0 0 -2.74-2.74l8.978-6.238z"/></g></g></svg>